# xmcd CD database file
#
# Track frame offsets:
#	150
#	16383
#	39831
#	56507
#	76562
#	89020
#	116619
#	150292
#	169417
#	185824
#	209690
#	229052
#	263979
#	276444
#
# Disc length: 3981 seconds
#
# Revision: 0
# Processed by: cddbd v1.5.1PL0 Copyright (c) Steve Scherf et al.
# Submitted via: CDex 1.51
#
DISCID=bc0f8b0e
DTITLE=Shabby Blues Band - Live Shabby Blues
DYEAR=2001
DGENRE=Blues
TTITLE0=Texas blues
TTITLE1=Út az angyalok városába
TTITLE2=Ultimátum
TTITLE3=Boogie
TTITLE4=Cukros tál
TTITLE5=Jó idõk-rossz idõk
TTITLE6=Maradsz aki vagy
TTITLE7=Rock'n'roll asszony
TTITLE8=Izgass fel baby
TTITLE9=A blues rabul ejtett
TTITLE10=Vitamin
TTITLE11=Freedom blues
TTITLE12=El ne hagyd a lányt
TTITLE13=Linda Lu
EXTD=YEAR: 2001
EXTT0=
EXTT1=
EXTT2=
EXTT3=
EXTT4=
EXTT5=
EXTT6=
EXTT7=
EXTT8=
EXTT9=
EXTT10=
EXTT11=
EXTT12=
EXTT13=
PLAYORDER=
